PathFileType	4	(X/Y/Z)	./resultDataOpenSim/trcMotMarkerGrf/sub06/qtm-01-08.trc
DataRate	CameraRate	NumFrames	NumMarkers	Units	OrigDataRate	OrigDataStartFrame	OrigNumFrames
250.000000	250.000000	13	24	m	250.000000	119	473
Frame#	Time	L.Toe.Tip			R.Toe.Tip			L.Ankle.Lat			R.Ankle.Lat			L.Ankle.Med			R.Ankle.Med			L.Heel			R.Heel			L.Knee.Lat			R.Knee.Lat			L.Knee.Med			R.Knee.Med			L.Thigh.Upper			R.Thigh.Upper			L.ASIS			R.ASIS			V.Sacral			L.Acromium			R.Acromium			C7			L.Elbow			R.Elbow			L.Wrist.Lat			R.Wrist.Lat
		X1	Y1	Z1	X2	Y2	Z2	X3	Y3	Z3	X4	Y4	Z4	X5	Y5	Z5	X6	Y6	Z6	X7	Y7	Z7	X8	Y8	Z8	X9	Y9	Z9	X10	Y10	Z10	X11	Y11	Z11	X12	Y12	Z12	X13	Y13	Z13	X14	Y14	Z14	X15	Y15	Z15	X16	Y16	Z16	X17	Y17	Z17	X18	Y18	Z18	X19	Y19	Z19	X20	Y20	Z20	X21	Y21	Z21	X22	Y22	Z22	X23	Y23	Z23	X24	Y24	Z24

119	0.472	-0.20470002	0.078851728	-0.053159	-0.68617283	0.035305176	0.10017231	-0.33209251	0.086264727	-0.065285173	-0.81932219	0.072728362	0.11358854	-0.32662021	0.10567122	0.018521148	-0.79103556	0.092412	0.029774497	-0.39151801	0.042953087	-0.0087530988	-0.87147913	0.05621948	0.046883944	-0.35885522	0.46253672	-0.08308067	-0.68064356	0.43654011	0.15718757	-0.36776278	0.45613944	0.040214867	-0.70351419	0.43848071	0.025313515	-0.5441137	0.80798903	-0.12135958	-0.61208381	0.7999447	0.22985354	-0.48441373	0.8502404	-0.064695685	-0.50048071	0.84590682	0.18065407	-0.67915495	0.92841083	0.055219031	-0.56024639	1.3351537	-0.13379614	-0.54885112	1.3232186	0.22555084	-0.62843719	1.3638942	0.04794657	-0.64970734	1.0281382	-0.18518708	-0.59031365	1.011183	0.32397182	-0.50656945	0.82726839	-0.20885327	-0.35870336	0.90843529	0.31553782
120	0.476	-0.18592178	0.082905404	-0.051977514	-0.68608073	0.03526119	0.10012871	-0.31352852	0.086366739	-0.064846255	-0.81899295	0.073266562	0.11327432	-0.30903704	0.10589329	0.018908615	-0.79040992	0.092675922	0.029486989	-0.37218116	0.041464898	-0.007885814	-0.87111193	0.0570116	0.046446563	-0.35183267	0.46080451	-0.082274825	-0.67736141	0.43598482	0.15705141	-0.36092838	0.45415054	0.04140024	-0.69971501	0.43780647	0.025095187	-0.53692666	0.80618639	-0.1213482	-0.60594194	0.79805713	0.22896366	-0.47725459	0.84842972	-0.064646086	-0.49445711	0.84423713	0.18101501	-0.6733153	0.92712894	0.055100687	-0.55390103	1.3334239	-0.13391192	-0.54249873	1.3216253	0.22556617	-0.6222272	1.3623985	0.047918975	-0.64390445	1.02667	-0.18504873	-0.58271885	1.0095092	0.32450432	-0.50190893	0.82518303	-0.20966828	-0.35007507	0.90883441	0.3149903
121	0.48	-0.16761196	0.087173979	-0.050852692	-0.68598448	0.03522646	0.10008735	-0.29534864	0.086782048	-0.064488086	-0.81861483	0.073845839	0.1129989	-0.29173	0.10641852	0.019262973	-0.78977731	0.092959071	0.029218715	-0.35308534	0.040289891	-0.0072569312	-0.87077893	0.05785796	0.04610765	-0.34468545	0.45900658	-0.081398941	-0.67404334	0.43538714	0.15688854	-0.35411847	0.4520633	0.042615663	-0.69583212	0.43711319	0.024922019	-0.52972516	0.80431436	-0.12135335	-0.5997037	0.79612628	0.22802876	-0.47001033	0.84659492	-0.064608587	-0.48833361	0.84256766	0.18132655	-0.66657663	0.92535777	0.054103544	-0.5475127	1.3316577	-0.13404821	-0.53611883	1.3199973	0.22556101	-0.61596663	1.3608767	0.047865012	-0.63801604	1.025161	-0.18492294	-0.574972	1.0078079	0.32493166	-0.49712527	0.82305334	-0.21048627	-0.34145042	0.90912005	0.31438092
122	0.484	-0.14982733	0.091608167	-0.049781848	-0.68589323	0.035191169	0.10004277	-0.27761872	0.087510456	-0.064196184	-0.81816199	0.074458605	0.11276324	-0.27476082	0.10719657	0.019553186	-0.78913992	0.09327198	0.028974266	-0.33422055	0.039291452	-0.0070533325	-0.87050942	0.058774505	0.045931096	-0.33754036	0.4571477	-0.080495286	-0.67066738	0.43476329	0.15672004	-0.34734783	0.44991645	0.043814115	-0.69189209	0.43642203	0.024792009	-0.52246388	0.80238876	-0.12137717	-0.59347676	0.79421402	0.22709142	-0.46269239	0.84473793	-0.064583389	-0.48213273	0.84087766	0.18160182	-0.65941001	0.9233553	0.052995766	-0.54107481	1.3298622	-0.13420402	-0.52970527	1.3183351	0.22553148	-0.60962613	1.3593249	0.047760293	-0.63203957	1.0236104	-0.18480842	-0.5670336	1.0060557	0.32526765	-0.49231854	0.82087539	-0.21131005	-0.3329031	0.90930766	0.31372481
123	0.488	-0.13262023	0.096140804	-0.048783403	-0.6858121	0.03515196	0.099993015	-0.26038199	0.088519558	-0.063965013	-0.81761543	0.075098507	0.11256134	-0.25820246	0.10817437	0.019767841	-0.78849115	0.093615643	0.028759692	-0.31563855	0.038401203	-0.0073771593	-0.87027904	0.059759884	0.045874666	-0.33041297	0.45524459	-0.079566726	-0.66719036	0.43412918	0.1565729	-0.34055927	0.44775205	0.04501429	-0.68790027	0.43574351	0.024666193	-0.51507682	0.80042919	-0.12141131	-0.58736736	0.79238225	0.22619597	-0.45534312	0.84285685	-0.064567992	-0.47586074	0.83915191	0.181842	-0.6518967	0.92112296	0.052033897	-0.53458451	1.3280451	-0.13438075	-0.52326579	1.3166405	0.22547176	-0.60321967	1.3577476	0.047604013	-0.62598791	1.0220263	-0.18471208	-0.55899515	1.0042486	0.32556438	-0.48755655	0.81864524	-0.21215108	-0.32445805	0.90940495	0.31304236
124	0.492	-0.1160304	0.10069226	-0.047893797	-0.6857401	0.035110379	0.099939921	-0.24365831	0.089757325	-0.063793749	-0.81700588	0.075766311	0.11239342	-0.2421403	0.10930406	0.019919856	-0.78782585	0.0939835	0.028579821	-0.29742063	0.03764915	-0.0082257103	-0.87002901	0.060800229	0.045831343	-0.32324427	0.45332696	-0.07859028	-0.66357681	0.43349091	0.15646077	-0.33365899	0.44561591	0.046267905	-0.68383403	0.43507419	0.02450115	-0.50749757	0.79845622	-0.12144596	-0.58141754	0.79066456	0.22539721	-0.44800049	0.84095169	-0.064556109	-0.46952752	0.8373956	0.18204237	-0.64382566	0.91854606	0.050637164	-0.52804247	1.3262062	-0.13458149	-0.51680803	1.3149188	0.22537533	-0.596772	1.356147	0.047406807	-0.61988962	1.0204174	-0.18464571	-0.55101723	1.0024128	0.32586882	-0.48283176	0.81636075	-0.21302074	-0.31609569	0.90941118	0.31237807
125	0.496	-0.10008889	0.10518044	-0.047132163	-0.68567226	0.035069424	0.099885051	-0.22747319	0.091174476	-0.063668814	-0.81643293	0.076463349	0.11227655	-0.2266638	0.11052536	0.020049066	-0.78715313	0.094377653	0.028441013	-0.27974175	0.037138562	-0.0093630669	-0.86972186	0.061889089	0.045748758	-0.31597706	0.45144689	-0.077540512	-0.65982609	0.43284454	0.15637691	-0.32659959	0.44356392	0.047595751	-0.67966034	0.43440872	0.024287124	-0.499727	0.79648304	-0.12149009	-0.57549775	0.78901521	0.22476713	-0.44066062	0.83902947	-0.064545	-0.46315081	0.83562254	0.18219813	-0.63524494	0.91577736	0.04790278	-0.5214534	1.3243419	-0.13481026	-0.5103352	1.3131814	0.22524456	-0.59030236	1.3545232	0.047182269	-0.61376073	1.0187859	-0.1846161	-0.54317552	1.0005794	0.32618456	-0.47810843	0.81402271	-0.21393066	-0.30779559	0.90932713	0.3117839
126	0.5	-0.084817479	0.10954125	-0.046479383	-0.68560459	0.035031216	0.099829278	-0.21186592	0.092724443	-0.063556693	-0.81597563	0.077192578	0.11223295	-0.2118175	0.11176228	0.020210326	-0.78649755	0.094815487	0.028358518	-0.26282677	0.036934439	-0.010407625	-0.86935014	0.063032706	0.045645118	-0.30857233	0.44967836	-0.07639909	-0.65596769	0.43218223	0.1563049	-0.3194052	0.44166572	0.04897565	-0.67536637	0.43374646	0.024045588	-0.49186963	0.7945081	-0.12156761	-0.56927276	0.78728777	0.22438023	-0.43328499	0.8371025	-0.064538738	-0.45673487	0.83383489	0.18230983	-0.62676622	0.91325204	0.043848918	-0.51482331	1.3224595	-0.13507011	-0.50385637	1.311442	0.22508991	-0.58381913	1.3528766	0.046938848	-0.60754672	1.0171285	-0.18461042	-0.5354337	0.99876647	0.32648509	-0.47338203	0.81163395	-0.21489843	-0.29954813	0.9091589	0.31126912
127	0.504	-0.070208908	0.11372907	-0.045884692	-0.68553711	0.034996245	0.099775628	-0.1968788	0.094353552	-0.063410476	-0.81558165	0.077969483	0.11226744	-0.19755588	0.11296155	0.020456629	-0.78588028	0.09531601	0.028350047	-0.2467787	0.036990906	-0.011124778	-0.86892818	0.064251118	0.045573643	-0.30101602	0.44808816	-0.075170782	-0.65202624	0.43150215	0.15623744	-0.31212923	0.43998846	0.050368938	-0.67098348	0.43307952	0.023807058	-0.48405242	0.79252534	-0.1216933	-0.56239377	0.78531496	0.22426493	-0.42582675	0.83518752	-0.064540305	-0.45027031	0.83202862	0.18238394	-0.61912187	0.911272	0.039903353	-0.50815515	1.3205751	-0.13535908	-0.49737952	1.3097062	0.22491931	-0.57731795	1.351209	0.04667197	-0.60112849	1.0154383	-0.18460166	-0.52773125	0.99698086	0.3267471	-0.46870702	0.80919348	-0.2159535	-0.29135429	0.9089156	0.31080336
128	0.508	-0.056231035	0.11768861	-0.045298899	-0.6854718	0.034965394	0.099730453	-0.18253964	0.095996812	-0.063183018	-0.81512927	0.07881751	0.11237	-0.18380461	0.1141132	0.020828022	-0.78528849	0.095883908	0.028413744	-0.2315443	0.037207343	-0.01149441	-0.8685144	0.065581983	0.045645067	-0.29331565	0.44670939	-0.073891631	-0.64798864	0.43080975	0.15618497	-0.30481059	0.43856654	0.051741063	-0.6665868	0.43238634	0.023595485	-0.47631513	0.79054196	-0.12186087	-0.55479491	0.78304087	0.22435721	-0.41825286	0.83330248	-0.064541746	-0.44376191	0.83021056	0.18243021	-0.61244173	0.90973558	0.037669197	-0.50144825	1.3186968	-0.13566816	-0.49089303	1.3079679	0.22473674	-0.57078952	1.349527	0.046369311	-0.59446695	1.0137145	-0.18458063	-0.5200333	0.99521323	0.32697322	-0.46414289	0.80670209	-0.21711284	-0.28322067	0.90859935	0.31035799
129	0.512	-0.04286293	0.12134434	-0.044711466	-0.68540819	0.034943223	0.099702864	-0.16885674	0.097575377	-0.062836539	-0.81457128	0.079747169	0.11253257	-0.17056971	0.11521046	0.021340926	-0.78467872	0.096515272	0.02852728	-0.21704162	0.03749662	-0.011555833	-0.86818323	0.067055348	0.045974394	-0.28548392	0.44553944	-0.072616622	-0.64381695	0.43010803	0.15616003	-0.29746943	0.43738802	0.053061667	-0.6622557	0.43164498	0.02342666	-0.46861709	0.78858024	-0.12205156	-0.5467779	0.78056724	0.22450955	-0.41058355	0.83145354	-0.064533982	-0.43722535	0.82839413	0.18246205	-0.6061459	0.90831316	0.037581172	-0.49470184	1.3168225	-0.13598843	-0.48437975	1.3062253	0.22454725	-0.56422828	1.3478433	0.046025515	-0.58769547	1.0119732	-0.18457181	-0.5123283	0.99344439	0.32718317	-0.45965131	0.80417779	-0.2183347	-0.27515153	0.90820397	0.30992427
130	0.516	-0.030114579	0.12461328	-0.04414239	-0.68534249	0.034935167	0.099701079	-0.15583603	0.098999447	-0.062344116	-0.81393858	0.080750474	0.11275282	-0.15792258	0.11621779	0.021995185	-0.78402028	0.097216818	0.028669107	-0.2032436	0.037788473	-0.011316002	-0.86792072	0.068662798	0.046521141	-0.27753382	0.44455654	-0.071398553	-0.63949518	0.42939259	0.15616182	-0.29011908	0.43640623	0.05430056	-0.65797757	0.43085489	0.023326527	-0.46090948	0.78666706	-0.1222449	-0.53883032	0.77809054	0.22455502	-0.40290803	0.82962885	-0.064526388	-0.4306566	0.82658991	0.18249833	-0.59952448	0.90678411	0.038919831	-0.48791819	1.3149535	-0.13632035	-0.4778543	1.3044931	0.22435757	-0.55763439	1.3461675	0.045648903	-0.58096916	1.0102346	-0.18460791	-0.50462422	0.99167502	0.32737424	-0.45509828	0.80165473	-0.21953207	-0.2671487	0.90772827	0.30950648
131	0.52	-0.018018386	0.12741228	-0.043605765	-0.68527103	0.034939486	0.099725537	-0.14349058	0.10018345	-0.061688237	-0.81325982	0.08181754	0.11303341	-0.14591514	0.11708039	0.022781631	-0.78331432	0.098004089	0.028828092	-0.19016344	0.038017313	-0.010757824	-0.86761679	0.070378073	0.047112517	-0.26948153	0.44373877	-0.070271674	-0.63503923	0.42866022	0.15619011	-0.28276719	0.43556082	0.055431672	-0.65355844	0.4300538	0.023342785	-0.45316775	0.78482538	-0.12242272	-0.53136286	0.77580888	0.22438819	-0.39532409	0.82781101	-0.064537493	-0.42403877	0.82480681	0.18255822	-0.59233171	0.90518233	0.040605181	-0.4811011	1.3131001	-0.13667182	-0.47135627	1.3027912	0.22417042	-0.55101104	1.3445012	0.045252514	-0.57429116	1.0085061	-0.18469955	-0.49694446	0.98992922	0.32751793	-0.45035489	0.79916752	-0.220637	-0.2592142	0.90718028	0.30911077
